
<svg height="256pt" viewBox="-75 0 512 512" width="512pt" xmlns="http://www.w3.org/2000/svg"><path d="m253.390625 231.976562v-36.554687l-10.300781-17.726563 10.300781-18.8125v-86.886718h-137.820313v261.890625c0 22.984375 11.460938 44.457031 30.558594 57.253906l109.035156 73.035156c11.777344 7.890625 25.101563 11.664063 38.285157 11.664063 22.21875 0 44.023437-10.722656 57.316406-30.566406 21.179687-31.617188 12.71875-74.421876-18.902344-95.601563l-66.867187-44.792969c-7.253906-4.859375-11.605469-13.015625-11.605469-21.746094v-15.003906l-11.992187-19.738281zm0 0" fill="#00a62c"/><path d="m253.390625 121.222656v-49.226562h-137.820313v89.660156c70.652344-4.9375 116.171876-27.019531 137.820313-40.433594zm0 0" fill="#008c1c"/><path d="m250.941406 98.078125h-132.925781c-19.625 0-35.535156-15.910156-35.535156-35.535156v-27.007813c0-19.625 15.910156-35.535156 35.535156-35.535156h132.925781c19.625 0 35.535156 15.910156 35.535156 35.535156v27.007813c0 19.625-15.90625 35.535156-35.535156 35.535156zm0 0" fill="#00c140"/><path d="m136.953125 0h31.75v98.078125h-31.75zm0 0" fill="#00a62c"/><path d="m200.257812 0h31.75v98.078125h-31.75zm0 0" fill="#00a62c"/><path d="m115.570312 158.882812h137.820313v36.542969h-137.820313zm0 0" fill="#eedb00"/><path d="m115.570312 231.972656h137.820313v36.542969h-137.820313zm0 0" fill="#eedb00"/><path d="m249.382812 385.828125-66.867187-44.789063c-7.253906-4.859374-11.605469-13.015624-11.605469-21.746093v-211.140625h-137.824218v86.886718l11.332031 18.273438-11.332031 18.65625v36.164062l10.304687 17.636719-10.304687 18.902344v37.8125c0 3.765625 2.984374 6.820313 6.75 6.988281 21.949218.984375 37.210937 8.730469 48.722656 26.191406 12.117187 18.371094 11.992187 44.425782 5.308594 65.890626-.914063 2.945312.230468 6.140624 2.792968 7.859374l76.023438 50.921876c11.777344 7.886718 25.101562 11.664062 38.285156 11.664062 22.21875 0 44.023438-10.722656 57.316406-30.566406 21.179688-31.621094 12.71875-74.421875-18.902344-95.605469zm0 0" fill="#29ce69"/><path d="m163.136719 407.253906c-8.511719-27.964844-34.375-50.300781-54.664063-64.164062-16.632812-11.363282-26.597656-30.179688-26.597656-59.15625v-72.335938c0-18.398437 13.148438-34.121094 31.234375-37.507812 28.828125-5.398438 47.84375-16.667969 57.800781-24.082032v-41.855468h-137.824218v86.886718l11.332031 18.28125-11.332031 18.257813v36.558594l10.304687 17.230469-10.304687 19.304687v38.347656c0 3.46875 2.75 6.296875 6.214843 6.433594 22.238281.878906 37.652344 8.609375 49.257813 26.210937 12.1875 18.480469 11.988281 44.746094 5.1875 66.285157-.855469 2.707031.210937 5.652343 2.570312 7.230469l76.363282 51.15625c11.78125 7.886718 25.105468 11.664062 38.289062 11.664062 22.21875 0 44.023438-10.722656 57.316406-30.566406-55.921875-5.097656-93.617187-36.285156-105.148437-74.179688zm0 0" fill="#00c140"/><path d="m168.460938 134.238281h-132.925782c-19.625 0-35.535156-15.910156-35.535156-35.535156v-27.007813c0-19.625 15.910156-35.535156 35.535156-35.535156h132.925782c19.625 0 35.535156 15.910156 35.535156 35.535156v27.007813c0 19.625-15.910156 35.535156-35.535156 35.535156zm0 0" fill="#73da8c"/><path d="m33.085938 195.042969h137.824218v36.542969h-137.824218zm0 0" fill="#f9ee80"/><path d="m33.085938 268.128906h137.824218v36.546875h-137.824218zm0 0" fill="#f9ee80"/><path d="m97.160156 369.992188c-25.570312-38.773438-64.070312-28.613282-64.070312-28.613282v28.664063c0 22.988281 11.460937 44.460937 30.558594 57.253906l36.398437 24.382813s22.179687-43.675782-2.886719-81.6875zm0 0" fill="#eedb00"/><path d="m54.46875 36.160156h31.753906v98.078125h-31.753906zm0 0" fill="#29ce69"/><path d="m117.773438 36.160156h31.753906v98.078125h-31.753906zm0 0" fill="#29ce69"/><g fill="#eedb00"><path d="m33.085938 231.585938h48.789062v-19.988282c0-5.898437 1.351562-11.523437 3.785156-16.554687h-52.574218zm0 0"/><path d="m33.085938 304.675781h50.785156c-1.3125-6.25-1.996094-13.144531-1.996094-20.742187v-15.804688h-48.789062zm0 0"/></g></svg>